<svg width="119" height="95" viewBox="0 0 119 95" fill="none" xmlns="http://www.w3.org/2000/svg">
<path fill-rule="evenodd" clip-rule="evenodd" d="M69.4975 0.373136C68.0618 1.34526 65.423 2.84255 62.257 4.09573C59.0515 5.36459 55.442 6.32847 52.0715 6.32851L50.0715 6.32853V8.32851C50.0715 22.1003 54.9087 39.2133 69.3825 49.2316C70.053 49.7897 71.0374 49.8605 71.7925 49.3428C86.3841 39.3371 91.2552 22.1512 91.2552 8.32979V6.32981L89.2552 6.32979C85.884 6.32975 82.2737 5.36565 79.0675 4.09653C75.9008 2.84308 73.2615 1.34547 71.8255 0.373136C71.7187 0.296711 71.6053 0.231638 71.4872 0.178277C71.2226 0.0579655 70.941 -0.000242475 70.6615 7.59095e-07C70.382 -0.000242475 70.1004 0.0579666 69.8357 0.178278C69.7177 0.231639 69.6043 0.296711 69.4975 0.373136ZM70.6677 45.2317C82.2925 36.5909 86.803 22.5115 87.2225 10.2388C83.8307 9.9422 80.4766 8.95625 77.5953 7.81576C74.8095 6.71305 72.3772 5.43036 70.6615 4.37833C68.9461 5.43013 66.5144 6.71252 63.7292 7.81497C60.8486 8.95519 57.4953 9.94092 54.1042 10.2375C54.5239 22.5118 59.0365 36.5936 70.6677 45.2317ZM2.08936 47.2036C0.984786 47.2036 0.0893555 48.099 0.0893555 49.2036C0.0893555 50.3082 0.984786 51.2036 2.08936 51.2036H26.4722V86.0259H8.78762C7.68305 86.0259 6.78762 86.9214 6.78762 88.0259C6.78762 89.1305 7.68305 90.0259 8.78762 90.0259H30.4722V86.4236H38.0379L60.2023 93.7996L60.3509 93.8252C60.4322 93.8392 60.5258 93.856 60.631 93.8749L60.6328 93.8752C62.6768 94.2423 69.0902 95.3939 74.5582 92.1775C79.5388 89.2477 102.944 76.4654 113.74 71.0673L113.84 71.0173L113.934 70.9566C115.419 69.9935 116.952 68.6202 117.829 66.8624C118.759 64.9977 118.896 62.7832 117.636 60.5506C116.168 57.9481 113.974 56.7542 111.663 56.5086C109.479 56.2765 107.316 56.8957 105.652 57.602C105.032 57.8654 103.102 58.8233 100.541 60.0943L100.541 60.0944C99.0089 60.8549 97.251 61.7275 95.4126 62.6305C91.7524 64.4283 87.7088 66.3797 84.2501 67.9372C84.2794 67.5829 84.293 67.2208 84.293 66.8524C84.293 64.3443 83.1473 62.5694 81.5037 61.5155C79.9821 60.5398 78.1775 60.2637 76.7767 60.2637H59.6734C57.4169 59.4656 52.911 57.6339 50.3255 55.8241C46.9433 53.4565 42.9428 52.9973 41.1981 53.062H30.4722V47.2036H2.08936ZM81.2459 73.2972C80.0079 74.0046 78.5427 74.2355 77.0626 74.2355C76.4384 74.2355 75.3019 74.2318 73.8649 74.2271H73.8646H73.8639H73.8627C69.5041 74.2129 62.3837 74.1897 58.4129 74.2335C57.6435 74.3765 56.5562 74.691 55.6749 75.1649C54.6274 75.7282 54.504 76.1522 54.4986 76.2381C54.4297 77.3405 53.4802 78.1784 52.3778 78.1095C51.2753 78.0406 50.4375 77.091 50.5064 75.9886C50.6488 73.7109 52.4643 72.3498 53.7804 71.642C55.2067 70.875 56.8247 70.4416 57.8982 70.2627L58.0498 70.2374L58.2035 70.2356C62.1758 70.1889 69.5168 70.2128 73.9286 70.2272C75.3442 70.2318 76.4582 70.2355 77.0626 70.2355C78.5724 70.2355 79.2496 69.9091 79.5806 69.5847C79.9049 69.2667 80.293 68.5605 80.293 66.8524C80.293 65.7367 79.8663 65.2172 79.3446 64.8827C78.7009 64.47 77.7472 64.2637 76.7767 64.2637H59.0017L58.6864 64.1556C56.5054 63.4078 51.2307 61.3403 48.0317 59.101C45.5354 57.3536 42.4376 57.0117 41.325 57.0601L41.2816 57.062H30.4722V82.4236H38.686L61.1803 89.9094L61.2424 89.9202C63.3098 90.2813 68.3855 91.1677 72.5301 88.7297C77.579 85.7598 100.931 73.0066 111.847 67.5418C112.957 66.8068 113.82 65.9376 114.25 65.0767C114.637 64.2998 114.706 63.4968 114.153 62.5159C113.352 61.0975 112.333 60.6024 111.24 60.4862C110.018 60.3563 108.585 60.7026 107.215 61.2841C106.7 61.5028 105.013 62.3402 102.647 63.5151L102.647 63.5152L102.646 63.5154L102.646 63.5156L102.644 63.5164C101.073 64.2966 99.2026 65.2254 97.1761 66.2208C92.1859 68.6718 86.3578 71.4709 82.2568 73.1614C81.9252 73.2981 81.578 73.3391 81.2459 73.2972ZM80.4198 16.4171C81.2008 17.1981 81.2008 18.4645 80.4198 19.2455L71.4961 28.1692C71.2802 28.385 71.0273 28.5413 70.7577 28.6378C70.0521 28.8906 69.2327 28.7344 68.6675 28.1692L64.5251 24.0268C63.744 23.2457 63.744 21.9794 64.5251 21.1983C65.3061 20.4173 66.5724 20.4173 67.3535 21.1983L70.0818 23.9266L77.5913 16.4171C78.3724 15.636 79.6387 15.636 80.4198 16.4171Z" fill="#00609C"/>
</svg>
